<svg width="44" height="44" viewBox="0 0 44 44" fill="none" xmlns="http://www.w3.org/2000/svg">
<path d="M23.7325 30.8297L23.645 30.8407V30.9289V34.6956V34.7956H23.745H32.7741V38.2473H11.0641V34.7956H20.0933H20.1933V34.6956V30.9289V30.8407L20.1058 30.8297C16.5999 30.388 13.3758 28.6819 11.0387 26.0316C8.70155 23.3813 7.41213 19.9691 7.41246 16.4355V5.58047H36.4258V16.4355C36.4261 19.9691 35.1367 23.3813 32.7996 26.0316C30.4625 28.6819 27.2383 30.388 23.7325 30.8297ZM10.9641 9.03396H10.8641V9.13396V16.4373C10.8641 17.8891 11.1501 19.3266 11.7056 20.6679C12.2612 22.0091 13.0755 23.2278 14.1021 24.2544C15.1286 25.2809 16.3473 26.0952 17.6886 26.6508C19.0298 27.2063 20.4674 27.4923 21.9191 27.4923C23.3709 27.4923 24.8084 27.2063 26.1497 26.6508C27.4909 26.0952 28.7096 25.2809 29.7362 24.2544C30.7627 23.2278 31.5771 22.0091 32.1326 20.6679C32.6882 19.3266 32.9741 17.8891 32.9741 16.4373V9.13396V9.03396H32.8741H10.9641ZM1.93496 9.23396H5.38663V16.3373H1.93496V9.23396ZM38.4516 9.23396H41.9033V16.3373H38.4516V9.23396Z" fill="#C49421" stroke="#F6F6F6" stroke-width="0.2"/>
</svg>
