<svg width="44" height="44" viewBox="0 0 44 44" fill="none" xmlns="http://www.w3.org/2000/svg">
<g clip-path="url(#clip0_157_50)">
<path d="M31.1538 27.4126V26.4126H30.1538C29.692 26.4126 29.2491 26.2291 28.9225 25.9026C28.596 25.576 28.4125 25.1331 28.4125 24.6713V15.7075C28.4125 14.7149 28.8068 13.763 29.5087 13.0612C30.2105 12.3594 31.1624 11.9651 32.1549 11.9651H39.1177C40.1102 11.9651 41.0621 12.3594 41.7639 13.0612L42.4553 12.3698L41.7639 13.0612C42.4658 13.763 42.86 14.7149 42.86 15.7075V24.6713C42.86 25.1331 42.6766 25.576 42.35 25.9026C42.0235 26.2291 41.5806 26.4126 41.1188 26.4126H40.1188V27.4126V42.8601H31.1538V27.4126ZM25.0419 20.5591C25.0416 21.3848 24.7134 22.1766 24.1293 22.7602C23.5453 23.3439 22.7533 23.6716 21.9276 23.6713C21.102 23.6711 20.3102 23.3428 19.7265 22.7588C19.1429 22.1747 18.8152 21.3827 18.8154 20.5571C18.8157 19.7314 19.144 18.9396 19.728 18.356L19.0211 17.6486L19.728 18.356C20.3121 17.7723 21.104 17.4446 21.9297 17.4448C22.7554 17.4451 23.5472 17.7734 24.1308 18.3574C24.7145 18.9415 25.0422 19.7334 25.0419 20.5591Z" fill="white" stroke="#C49421" stroke-width="2"/>
<path d="M4.74482 14.7053C4.7441 14.7053 4.74337 14.7053 4.74265 14.7053H4.74482ZM4.74482 14.7053C5.73694 14.7056 6.68841 15.0997 7.39019 15.8011C8.09248 16.503 8.48718 17.4551 8.48747 18.448C8.48775 19.4409 8.0936 20.3932 7.39172 21.0955C6.68983 21.7978 5.73771 22.1925 4.74482 22.1928C4.25318 22.193 3.76633 22.0963 3.31207 21.9083C2.8578 21.7202 2.44502 21.4446 2.09728 21.0971L1.39663 21.7981L2.09728 21.0971C1.74954 20.7495 1.47366 20.3369 1.28539 19.8827C1.09716 19.4287 1.00019 18.942 1 18.4505C1 18.4505 1 18.4505 1 18.4505L4.74482 14.7053ZM2.09555 15.8028C2.09561 15.8028 2.09568 15.8027 2.09575 15.8026C2.55277 15.3457 3.11581 15.0187 3.72669 14.8461C4.05652 14.753 4.39825 14.7055 4.74236 14.7053L1 18.4502M2.09555 15.8028C1.85064 16.0477 1.6432 16.3233 1.47691 16.6206M2.09555 15.8028C1.85231 16.0462 1.6443 16.3215 1.47691 16.6206M2.09555 15.8028L1 18.4502M1.47691 16.6206C1.4052 16.7487 1.34094 16.8812 1.28456 17.0174C1.09655 17.4717 0.999858 17.9585 1 18.4502M1.47691 16.6206C1.167 17.1746 1.00005 17.8039 1 18.4502M1 24.6703V22.8051C1.46134 23.2016 1.98347 23.5229 2.54724 23.7562C3.24418 24.0447 3.99111 24.193 4.74539 24.1928C6.26873 24.1924 7.72949 23.5868 8.80634 22.5093C9.88319 21.4319 10.4879 19.9708 10.4875 18.4474C10.4871 17.0696 9.99165 15.743 9.09977 14.7053H11.7051C12.1966 14.7053 12.6832 14.8021 13.1373 14.9902C13.5913 15.1783 14.0039 15.454 14.3514 15.8015C14.6989 16.149 14.9746 16.5615 15.1626 17.0156C15.3507 17.4696 15.4475 17.9563 15.4475 18.4477V24.6703C15.4475 25.1322 15.264 25.5751 14.9375 25.9016C14.611 26.2281 14.1681 26.4116 13.7063 26.4116H12.3188L12.7576 27.7278L15.0601 34.6353H13.7063H12.7063V35.6353V42.8591H3.74125V35.6353V34.6353H2.74125H1.38743L3.68993 27.7278L4.12868 26.4116H2.74125C2.27944 26.4116 1.83655 26.2281 1.51 25.9016C1.18345 25.5751 1 25.1322 1 24.6703ZM40.119 5.50421C40.1325 6.10114 40.0266 6.69475 39.8075 7.2502C39.5885 7.80564 39.2606 8.31172 38.8433 8.73872C38.4259 9.16572 37.9275 9.50504 37.3772 9.73675C36.8269 9.96846 36.2359 10.0879 35.6388 10.088C35.0417 10.0882 34.4506 9.96905 33.9002 9.73762C33.3498 9.50618 32.8512 9.16712 32.4336 8.74032C32.016 8.31353 31.6879 7.80761 31.4686 7.25228C31.2492 6.69695 31.143 6.10339 31.1562 5.50645C31.1821 4.33526 31.6655 3.22074 32.5029 2.40149C33.3402 1.58223 34.4651 1.12334 35.6365 1.12305C36.808 1.12275 37.933 1.58108 38.7708 2.39992C39.6086 3.21876 40.0925 4.33303 40.119 5.50421Z" fill="white" stroke="#C49421" stroke-width="2"/>
<path d="M20.1888 35.6363V34.6363H19.1888C18.727 34.6363 18.2841 34.4528 17.9575 34.1263C17.631 33.7997 17.4475 33.3568 17.4475 32.895V28.6735C17.4475 27.8773 17.7638 27.1136 18.3269 26.5506C18.8899 25.9876 19.6535 25.6713 20.4497 25.6713H23.4103C24.2065 25.6713 24.9702 25.9876 25.5332 26.5506C26.0962 27.1136 26.4125 27.8773 26.4125 28.6735V32.895C26.4125 33.3568 26.2291 33.7997 25.9025 34.1263C25.576 34.4528 25.1331 34.6363 24.6713 34.6363H23.6713V35.6363V42.86H20.1888V35.6363ZM5.02112 11.4825L4.30632 12.1818L5.02112 11.4825C4.60355 11.0557 4.27547 10.5498 4.05611 9.99447C3.83676 9.43914 3.73057 8.84557 3.74377 8.24864C3.76967 7.07745 4.25304 5.96293 5.0904 5.14368C5.92776 4.32442 7.05258 3.86553 8.22405 3.86523C9.39553 3.86494 10.5206 4.32327 11.3583 5.14211C12.1961 5.96094 12.68 7.07522 12.7065 8.24639C12.72 8.84333 12.6141 9.43694 12.3951 9.99238C12.176 10.5478 11.8482 11.0539 11.4308 11.4809C11.0135 11.9079 10.515 12.2472 9.96471 12.4789C9.41442 12.7106 8.82338 12.8301 8.2263 12.8302C7.62921 12.8304 7.03811 12.7112 6.48771 12.4798C5.9373 12.2484 5.43868 11.9093 5.02112 11.4825Z" fill="white" stroke="#C49421" stroke-width="2"/>
</g>
<defs>
<clipPath id="clip0_157_50">
<rect width="43.86" height="43.86" fill="white"/>
</clipPath>
</defs>
</svg>
