<svg width="15" height="15" viewBox="0 0 15 15" fill="none" xmlns="http://www.w3.org/2000/svg">
<path d="M13.9748 11.4176C13.4475 10.8863 12.1705 10.111 11.551 9.7986C10.7441 9.39219 10.6777 9.35899 10.0436 9.83014C9.62054 10.1446 9.33931 10.4255 8.84425 10.3199C8.34919 10.2143 7.27341 9.61897 6.33144 8.67998C5.38947 7.741 4.7596 6.63401 4.65369 6.14061C4.54777 5.64721 4.83331 5.3693 5.14476 4.9453C5.58371 4.34764 5.5505 4.24803 5.17531 3.44119C4.88279 2.81365 4.08492 1.54862 3.55167 1.02401C2.98124 0.460549 2.98124 0.560158 2.61369 0.712893C2.31444 0.83877 2.02736 0.991813 1.75605 1.1701C1.2248 1.52305 0.929956 1.81623 0.723764 2.25684C0.517573 2.69744 0.424936 3.73039 1.48976 5.66481C2.55458 7.59922 3.30165 8.58834 4.84792 10.1303C6.39419 11.6722 7.5832 12.5013 9.32138 13.4762C11.4716 14.6805 12.2964 14.4457 12.7383 14.2398C13.1802 14.034 13.4748 13.7418 13.8284 13.2105C14.0071 12.9397 14.1605 12.6529 14.2866 12.3539C14.4396 11.9877 14.5393 11.9877 13.9748 11.4176Z" stroke="white" stroke-miterlimit="10"/>
</svg>
