<svg width="17" height="18" viewBox="0 0 17 18" fill="none" xmlns="http://www.w3.org/2000/svg">
<path d="M8.5 10.0625C7.97464 10.0625 7.46109 9.90672 7.02427 9.61484C6.58745 9.32297 6.24699 8.90812 6.04595 8.42275C5.8449 7.93739 5.7923 7.40331 5.89479 6.88804C5.99728 6.37278 6.25027 5.89948 6.62175 5.528C6.99323 5.15652 7.46653 4.90353 7.98179 4.80104C8.49706 4.69855 9.03114 4.75115 9.5165 4.9522C10.0019 5.15324 10.4167 5.4937 10.7086 5.93052C11.0005 6.36734 11.1563 6.88089 11.1563 7.40625C11.1554 8.11047 10.8753 8.78561 10.3773 9.28357C9.87936 9.78153 9.20422 10.0617 8.5 10.0625ZM8.5 5.8125C8.18479 5.8125 7.87665 5.90597 7.61456 6.0811C7.35247 6.25622 7.1482 6.50513 7.02757 6.79635C6.90694 7.08757 6.87538 7.40802 6.93687 7.71718C6.99837 8.02633 7.15016 8.31031 7.37305 8.5332C7.59594 8.75609 7.87992 8.90788 8.18908 8.96938C8.49823 9.03087 8.81868 8.99931 9.1099 8.87868C9.40112 8.75806 9.65003 8.55378 9.82516 8.29169C10.0003 8.0296 10.0938 7.72147 10.0938 7.40625C10.0933 6.98369 9.92528 6.57856 9.62649 6.27977C9.32769 5.98097 8.92256 5.81292 8.5 5.8125Z" fill="#C49421"/>
<path d="M8.5 16.4375L4.01838 11.1521C3.9561 11.0727 3.89448 10.9929 3.8335 10.9125C3.06835 9.90387 2.65483 8.67227 2.65625 7.40625C2.65625 5.85639 3.27193 4.37001 4.36785 3.27409C5.46376 2.17818 6.95014 1.5625 8.5 1.5625C10.0499 1.5625 11.5362 2.17818 12.6322 3.27409C13.7281 4.37001 14.3438 5.85639 14.3438 7.40625C14.345 8.67166 13.9317 9.90264 13.167 10.9109L13.1665 10.9125C13.1665 10.9125 13.0071 11.1218 12.9832 11.15L8.5 16.4375ZM4.68191 10.2723C4.68191 10.2723 4.80569 10.436 4.83385 10.471L8.5 14.7949L12.1709 10.4652C12.1943 10.436 12.3186 10.2713 12.3192 10.2708C12.9446 9.44686 13.2825 8.44062 13.2813 7.40625C13.2813 6.13818 12.7775 4.92205 11.8809 4.0254C10.9842 3.12874 9.76807 2.625 8.5 2.625C7.23194 2.625 6.01581 3.12874 5.11915 4.0254C4.22249 4.92205 3.71875 6.13818 3.71875 7.40625C3.71744 8.44128 4.0558 9.44815 4.68191 10.2723Z" fill="#C49421"/>
</svg>
